<mxfile host="Electron" modified="2023-06-04T21:10:52.887Z" agent="Mozilla/5.0 (Windows NT 10.0; Win64; x64) AppleWebKit/537.36 (KHTML, like Gecko) draw.io/21.2.8 Chrome/112.0.5615.165 Electron/24.2.0 Safari/537.36" etag="AmKPk1YnEOqvJm7J6-CD" version="21.2.8" type="device">
  <diagram name="クラス構造" id="i5GliGH0XojSGH7lU3jr">
    <mxGraphModel dx="712" dy="827" grid="1" gridSize="10" guides="1" tooltips="1" connect="1" arrows="1" fold="1" page="1" pageScale="1" pageWidth="827" pageHeight="1169" math="0" shadow="0">
      <root>
        <mxCell id="0" />
        <mxCell id="1" parent="0" />
        <mxCell id="GSKp3GsoJOSXGEWYLFMq-11" value="GameItem" style="html=1;whiteSpace=wrap;" vertex="1" parent="1">
          <mxGeometry x="110" y="240" width="110" height="50" as="geometry" />
        </mxCell>
        <mxCell id="GSKp3GsoJOSXGEWYLFMq-12" value="HealItem" style="html=1;whiteSpace=wrap;" vertex="1" parent="1">
          <mxGeometry x="110" y="370" width="110" height="50" as="geometry" />
        </mxCell>
        <mxCell id="GSKp3GsoJOSXGEWYLFMq-13" value="WeaponItem" style="html=1;whiteSpace=wrap;" vertex="1" parent="1">
          <mxGeometry x="120" y="380" width="110" height="50" as="geometry" />
        </mxCell>
        <mxCell id="GSKp3GsoJOSXGEWYLFMq-14" value="Extends" style="endArrow=block;endSize=16;endFill=0;html=1;rounded=0;exitX=0.5;exitY=0;exitDx=0;exitDy=0;" edge="1" parent="1" source="GSKp3GsoJOSXGEWYLFMq-12" target="GSKp3GsoJOSXGEWYLFMq-11">
          <mxGeometry width="160" relative="1" as="geometry">
            <mxPoint x="170" y="340" as="sourcePoint" />
            <mxPoint x="330" y="340" as="targetPoint" />
          </mxGeometry>
        </mxCell>
        <mxCell id="GSKp3GsoJOSXGEWYLFMq-15" value="Object" style="html=1;whiteSpace=wrap;" vertex="1" parent="1">
          <mxGeometry x="110" y="510" width="110" height="50" as="geometry" />
        </mxCell>
        <mxCell id="GSKp3GsoJOSXGEWYLFMq-16" value="WeaponItemEnum" style="html=1;whiteSpace=wrap;" vertex="1" parent="1">
          <mxGeometry x="120" y="520" width="110" height="50" as="geometry" />
        </mxCell>
        <mxCell id="GSKp3GsoJOSXGEWYLFMq-17" value="Use" style="endArrow=open;endSize=12;dashed=1;html=1;rounded=0;exitX=0.5;exitY=0;exitDx=0;exitDy=0;" edge="1" parent="1" source="GSKp3GsoJOSXGEWYLFMq-15" target="GSKp3GsoJOSXGEWYLFMq-12">
          <mxGeometry width="160" relative="1" as="geometry">
            <mxPoint x="180" y="480" as="sourcePoint" />
            <mxPoint x="175" y="450" as="targetPoint" />
          </mxGeometry>
        </mxCell>
        <mxCell id="GSKp3GsoJOSXGEWYLFMq-18" value="Items" style="swimlane;whiteSpace=wrap;html=1;" vertex="1" parent="1">
          <mxGeometry x="30" y="195" width="270" height="420" as="geometry" />
        </mxCell>
        <mxCell id="GSKp3GsoJOSXGEWYLFMq-23" value="listeners" style="swimlane;whiteSpace=wrap;html=1;" vertex="1" parent="1">
          <mxGeometry x="340" y="300" width="270" height="190" as="geometry" />
        </mxCell>
        <mxCell id="GSKp3GsoJOSXGEWYLFMq-24" value="WeaponItemListener" style="html=1;whiteSpace=wrap;" vertex="1" parent="GSKp3GsoJOSXGEWYLFMq-23">
          <mxGeometry x="50" y="70" width="150" height="50" as="geometry" />
        </mxCell>
        <mxCell id="GSKp3GsoJOSXGEWYLFMq-22" value="WeaponItemListener" style="html=1;whiteSpace=wrap;" vertex="1" parent="1">
          <mxGeometry x="400" y="380" width="150" height="50" as="geometry" />
        </mxCell>
        <mxCell id="GSKp3GsoJOSXGEWYLFMq-21" value="" style="endArrow=none;html=1;rounded=0;" edge="1" parent="1" source="GSKp3GsoJOSXGEWYLFMq-13">
          <mxGeometry width="50" height="50" relative="1" as="geometry">
            <mxPoint x="350" y="450" as="sourcePoint" />
            <mxPoint x="400" y="405" as="targetPoint" />
          </mxGeometry>
        </mxCell>
      </root>
    </mxGraphModel>
  </diagram>
</mxfile>
